<svg xmlns="http://www.w3.org/2000/svg" viewBox="0 0 64 64" width="64" height="64">
  <!-- Brutalist black background -->
  <rect width="64" height="64" fill="#000000"/>
  
  <!-- Clapperboard - main white rectangle (bigger) -->
  <rect x="6" y="12" width="52" height="40" fill="#FFFFFF" stroke="#000000" stroke-width="1"/>
  
  <!-- Diagonal black stripe (classic clapperboard design) -->
  <polygon points="6,12 26,12 18,20 6,20" fill="#000000"/>
  
  <!-- Film strip holes on left edge -->
  <circle cx="10" cy="24" r="2" fill="#000000"/>
  <circle cx="10" cy="32" r="2" fill="#000000"/>
  <circle cx="10" cy="40" r="2" fill="#000000"/>
  <circle cx="10" cy="48" r="2" fill="#000000"/>
  
  <!-- Bold geometric "MN" (Movie Night) - more readable -->
  <!-- M -->
  <rect x="22" y="28" width="4" height="16" fill="#000000"/>
  <rect x="26" y="28" width="4" height="10" fill="#000000"/>
  <rect x="30" y="28" width="4" height="10" fill="#000000"/>
  <rect x="34" y="28" width="4" height="16" fill="#000000"/>
  
  <!-- N -->
  <rect x="40" y="28" width="4" height="16" fill="#000000"/>
  <rect x="44" y="28" width="3" height="8" fill="#000000"/>
  <rect x="47" y="36" width="3" height="8" fill="#000000"/>
  <rect x="50" y="28" width="4" height="16" fill="#000000"/>
  
  <!-- Red accent block -->
  <rect x="6" y="44" width="14" height="8" fill="#FF0000"/>
</svg>
