<svg xmlns="http://www.w3.org/2000/svg" viewBox="0 0 64 64" width="64" height="64">
  <!-- Brutalist background -->
  <rect width="64" height="64" fill="#000000"/>
  
  <!-- Bold geometric "YG" letters -->
  <!-- Y -->
  <rect x="8" y="8" width="6" height="20" fill="#FFFFFF"/>
  <rect x="14" y="8" width="6" height="6" fill="#FFFFFF"/>
  <rect x="20" y="8" width="6" height="6" fill="#FFFFFF"/>
  <rect x="14" y="14" width="6" height="6" fill="#FFFFFF"/>
  <rect x="20" y="14" width="6" height="6" fill="#FFFFFF"/>
  <rect x="14" y="20" width="6" height="8" fill="#FFFFFF"/>
  
  <!-- G -->
  <rect x="30" y="8" width="18" height="6" fill="#FFFFFF"/>
  <rect x="30" y="8" width="6" height="20" fill="#FFFFFF"/>
  <rect x="30" y="22" width="12" height="6" fill="#FFFFFF"/>
  <rect x="42" y="22" width="6" height="6" fill="#FFFFFF"/>
  <rect x="42" y="14" width="6" height="8" fill="#FFFFFF"/>
  
  <!-- Brutalist accent blocks -->
  <rect x="8" y="32" width="8" height="8" fill="#FF0000"/>
  <rect x="48" y="32" width="8" height="8" fill="#FF0000"/>
  
  <!-- Geometric pattern elements -->
  <rect x="20" y="44" width="24" height="4" fill="#FFFFFF"/>
  <rect x="24" y="52" width="16" height="4" fill="#FFFFFF"/>
  <rect x="28" y="56" width="8" height="4" fill="#FFFFFF"/>
</svg>
